<?xml version="1.0" standalone="no"?><svg xmlns="http://www.w3.org/2000/svg" viewBox="0 0 1440 320"><path fill="#0099ff" fill-opacity="1" d="M0,192L30,208C60,224,120,256,180,234.7C240,213,300,139,360,144C420,149,480,235,540,229.3C600,224,660,128,720,117.3C780,107,840,181,900,218.7C960,256,1020,256,1080,224C1140,192,1200,128,1260,117.3C1320,107,1380,149,1410,170.7L1440,192L1440,320L1410,320C1380,320,1320,320,1260,320C1200,320,1140,320,1080,320C1020,320,960,320,900,320C840,320,780,320,720,320C660,320,600,320,540,320C480,320,420,320,360,320C300,320,240,320,180,320C120,320,60,320,30,320L0,320Z"></path></svg>