<?xml version="1.0" standalone="no"?><svg xmlns="http://www.w3.org/2000/svg" viewBox="0 0 1440 320"><path fill="#0099ff" fill-opacity="1" d="M0,160L20,154.7C40,149,80,139,120,117.3C160,96,200,64,240,69.3C280,75,320,117,360,144C400,171,440,181,480,186.7C520,192,560,192,600,181.3C640,171,680,149,720,149.3C760,149,800,171,840,186.7C880,203,920,213,960,181.3C1000,149,1040,75,1080,69.3C1120,64,1160,128,1200,149.3C1240,171,1280,149,1320,138.7C1360,128,1400,128,1420,128L1440,128L1440,320L1420,320C1400,320,1360,320,1320,320C1280,320,1240,320,1200,320C1160,320,1120,320,1080,320C1040,320,1000,320,960,320C920,320,880,320,840,320C800,320,760,320,720,320C680,320,640,320,600,320C560,320,520,320,480,320C440,320,400,320,360,320C320,320,280,320,240,320C200,320,160,320,120,320C80,320,40,320,20,320L0,320Z"></path></svg>