<?xml version="1.0" standalone="no"?><svg xmlns="http://www.w3.org/2000/svg" viewBox="0 0 1440 320"><path fill="#0099ff" fill-opacity="1" d="M0,192L30,208C60,224,120,256,180,234.7C240,213,300,139,360,144C420,149,480,235,540,229.3C600,224,660,128,720,117.3C780,107,840,181,900,218.7C960,256,1020,256,1080,224C1140,192,1200,128,1260,117.3C1320,107,1380,149,1410,170.7L1440,192L1440,0L1410,0C1380,0,1320,0,1260,0C1200,0,1140,0,1080,0C1020,0,960,0,900,0C840,0,780,0,720,0C660,0,600,0,540,0C480,0,420,0,360,0C300,0,240,0,180,0C120,0,60,0,30,0L0,0Z"></path></svg>